<svg width="44" height="44" viewBox="0 0 44 44" fill="none" xmlns="http://www.w3.org/2000/svg">
<path fill-rule="evenodd" clip-rule="evenodd" d="M21.3855 34.1586L10.5113 40.1159C9.64312 40.5671 8.5735 40.2477 8.09486 39.3943C7.95639 39.1299 7.88168 38.8368 7.87671 38.5384V12.1418C7.87671 7.10748 11.3168 5.09375 16.2673 5.09375H27.8965C32.6959 5.09375 36.2871 6.97323 36.2871 11.8062V38.5384C36.2871 39.0147 36.0979 39.4714 35.7612 39.8081C35.4244 40.1448 34.9677 40.334 34.4915 40.334C34.1877 40.3292 33.8892 40.2546 33.6189 40.1159L22.6776 34.1586C22.2744 33.9408 21.7887 33.9408 21.3855 34.1586Z" stroke="#200E32" stroke-width="2.75" stroke-linecap="round" stroke-linejoin="round"/>
<path d="M15.3452 17.0928H28.7194" stroke="#200E32" stroke-width="2.75" stroke-linecap="round" stroke-linejoin="round"/>
</svg>
